<svg width="24" height="24" viewBox="0 0 24 24" fill="none" xmlns="http://www.w3.org/2000/svg">
<path d="M2.73749 1.46625C2.38499 1.11375 1.81499 1.11375 1.46624 1.46625C1.11749 1.81875 1.11374 2.38875 1.46249 2.74125L21.2625 22.5412C21.615 22.8937 22.185 22.8937 22.5337 22.5412C22.8825 22.1887 22.8862 21.6187 22.5337 21.27L18.9187 17.655C19.02 17.565 19.1212 17.475 19.2187 17.385C20.9737 15.7537 22.1475 13.8075 22.7062 12.4687C22.83 12.1725 22.83 11.8425 22.7062 11.5462C22.1475 10.2075 20.9737 8.2575 19.2187 6.63C17.4525 4.99125 15.0262 3.6075 11.9962 3.6075C9.86624 3.6075 8.03624 4.29 6.52124 5.265L2.73749 1.46625ZM7.83374 6.56625C9.03749 5.8575 10.4287 5.4 12 5.4C14.445 5.4 16.455 6.51 17.9962 7.93875C19.44 9.2775 20.4375 10.875 20.9437 12C20.4337 13.125 19.4362 14.7187 17.9962 16.0612C17.88 16.1662 17.7637 16.2712 17.6437 16.3762L15.9675 14.7C16.4925 13.9312 16.8 13.0012 16.8 12C16.8 9.34875 14.6512 7.2 12 7.2C10.9987 7.2 10.0687 7.5075 9.29999 8.0325L7.83374 6.56625ZM14.6587 13.3912L10.6087 9.34125C11.025 9.12375 11.4975 9 12 9C13.6575 9 15 10.3425 15 12C15 12.5025 14.8762 12.975 14.6587 13.3912ZM5.07749 8.895L3.80249 7.62C2.57999 9 1.73999 10.4625 1.29374 11.5387C1.16999 11.835 1.16999 12.165 1.29374 12.4612C1.85249 13.8 3.02624 15.75 4.78124 17.3775C6.54749 19.0162 8.97374 20.4 12.0037 20.4C13.4025 20.4 14.6737 20.1037 15.81 19.6275L14.4075 18.225C13.6575 18.465 12.855 18.6 12 18.6C9.55499 18.6 7.54499 17.49 6.00374 16.0612C4.55999 14.7225 3.56249 13.125 3.05624 12C3.44624 11.1337 4.12874 9.99 5.08124 8.895H5.07749Z" fill="#111601"/>
</svg>
