<svg width="352" height="346" viewBox="0 0 352 346" fill="none" xmlns="http://www.w3.org/2000/svg">
<path d="M181.36 14.2678C179.357 13.3374 176.116 13.3543 174.122 14.3057L154.971 23.4438C152.977 24.3951 152.985 25.9206 154.988 26.851L217.289 55.7814C219.292 56.7118 219.3 58.2373 217.307 59.1886L183.431 75.3519C181.438 76.3032 178.197 76.3201 176.193 75.3897L113.893 46.4594C111.889 45.5289 108.649 45.5459 106.655 46.4972L85.1634 56.7517C83.1696 57.703 83.1776 59.2285 85.1812 60.1589L174.579 101.672C176.583 102.603 179.823 102.586 181.817 101.635L270.776 59.1886C272.77 58.2373 272.762 56.7118 270.758 55.7814L181.36 14.2678Z" fill="#A6FF95"/>
<path d="M261.942 71.154C269.951 67.4195 276.443 71.5556 276.443 80.3921V97.6021C276.443 102.798 274.197 108.462 270.719 113.006C274.349 114.222 276.709 117.84 276.709 123.168V154.834C276.709 163.671 270.217 173.862 262.208 177.596L183.753 214.181C181.75 215.114 180.127 214.08 180.127 211.871V113.305C180.127 111.096 181.75 108.548 183.753 107.614L261.942 71.154ZM209.328 151.388C207.326 152.322 205.703 154.87 205.703 157.079V177.043C205.703 179.252 207.326 180.286 209.328 179.352L247.416 161.592C249.418 160.658 251.042 158.11 251.042 155.901V135.937C251.041 133.728 249.418 132.694 247.416 133.628L209.328 151.388ZM209.861 112.367C207.859 113.301 206.236 115.849 206.236 118.058V129.735C206.236 131.944 207.859 132.978 209.861 132.044L247.683 114.408C249.685 113.474 251.308 110.926 251.308 108.717V97.0405C251.308 94.8316 249.685 93.7976 247.683 94.731L209.861 112.367Z" fill="#A6FF95"/>
<path d="M77.2906 68.2679C77.2906 66.0588 78.9137 65.0248 80.9159 65.9584L104.256 76.8421C106.258 77.7757 107.881 80.3234 107.881 82.5325V117.159C107.881 119.368 109.504 121.916 111.506 122.85L139.517 135.911C141.519 136.845 143.142 135.811 143.142 133.602V98.975C143.142 96.7658 144.765 95.7318 146.767 96.6654L170.248 107.614C172.25 108.548 173.873 111.096 173.873 113.305V211.871C173.873 214.081 172.25 215.115 170.248 214.181L146.767 203.232C144.765 202.298 143.142 199.751 143.142 197.542V162.915C143.142 160.706 141.519 158.158 139.517 157.224L111.506 144.163C109.504 143.229 107.881 144.263 107.881 146.472V181.099C107.881 183.308 106.258 184.342 104.256 183.409L80.9159 172.525C78.9137 171.591 77.2906 169.044 77.2906 166.834V68.2679Z" fill="#A6FF95"/>
<path d="M173.097 4.42065C177.16 2.51383 181.863 2.52701 185.916 4.45581L278.946 48.7322C284.171 51.219 287.5 56.4904 287.5 62.2771V167.822C287.5 173.72 284.043 179.071 278.666 181.496L181.754 225.195C177.766 226.993 173.191 226.961 169.229 225.106L76.1406 181.527C70.8685 179.059 67.5 173.763 67.5 167.942V63.5105C67.5 57.6945 70.8619 52.4024 76.127 49.9314L173.097 4.42065Z" stroke="#A6FF95" stroke-width="6"/>
<g filter="url(#filter0_d_174_3)">
<mask id="path-5-outside-1_174_3" maskUnits="userSpaceOnUse" x="4" y="265.871" width="158" height="63" fill="black">
<rect fill="white" x="4" y="265.871" width="158" height="63"/>
<path d="M58.12 268.871V300.871C58.12 316.711 51 325.351 33.16 325.351H32.04C14.2 325.351 7 316.711 7 300.871V268.871H22.2V300.871C22.2 309.991 26.2 312.631 31.32 312.631H33.88C39 312.631 42.92 309.991 42.92 300.871V268.871H58.12ZM110.781 268.871H125.981V324.871H115.261C108.221 324.871 105.101 323.271 101.901 316.791L90.1406 293.351V324.871H74.9406V268.871H85.4206C93.3406 268.871 95.9006 271.191 98.8606 277.191L110.781 301.031V268.871ZM158.686 324.871H143.486V268.871H158.686V324.871Z"/>
</mask>
<path d="M58.12 268.871H61.12V265.871H58.12V268.871ZM7 268.871V265.871H4V268.871H7ZM22.2 268.871H25.2V265.871H22.2V268.871ZM42.92 268.871V265.871H39.92V268.871H42.92ZM58.12 268.871H55.12V300.871H58.12H61.12V268.871H58.12ZM58.12 300.871H55.12C55.12 308.405 53.4203 313.614 50.1751 316.964C46.9472 320.297 41.644 322.351 33.16 322.351V325.351V328.351C42.516 328.351 49.6928 326.086 54.4849 321.139C59.2597 316.209 61.12 309.177 61.12 300.871H58.12ZM33.16 325.351V322.351H32.04V325.351V328.351H33.16V325.351ZM32.04 325.351V322.351C23.5563 322.351 18.2289 320.297 14.9797 316.959C11.716 313.606 10 308.398 10 300.871H7H4C4 309.185 5.88397 316.217 10.6803 321.144C15.4911 326.086 22.6837 328.351 32.04 328.351V325.351ZM7 300.871H10V268.871H7H4V300.871H7ZM7 268.871V271.871H22.2V268.871V265.871H7V268.871ZM22.2 268.871H19.2V300.871H22.2H25.2V268.871H22.2ZM22.2 300.871H19.2C19.2 305.799 20.2711 309.611 22.6224 312.192C25.0298 314.834 28.2652 315.631 31.32 315.631V312.631V309.631C29.2548 309.631 27.9302 309.109 27.0576 308.151C26.1289 307.132 25.2 305.064 25.2 300.871H22.2ZM31.32 312.631V315.631H33.88V312.631V309.631H31.32V312.631ZM33.88 312.631V315.631C36.9365 315.631 40.1608 314.833 42.5499 312.178C44.875 309.595 45.92 305.785 45.92 300.871H42.92H39.92C39.92 305.078 39.005 307.148 38.0901 308.165C37.2392 309.11 35.9435 309.631 33.88 309.631V312.631ZM42.92 300.871H45.92V268.871H42.92H39.92V300.871H42.92ZM42.92 268.871V271.871H58.12V268.871V265.871H42.92V268.871ZM110.781 268.871V265.871H107.781V268.871H110.781ZM125.981 268.871H128.981V265.871H125.981V268.871ZM125.981 324.871V327.871H128.981V324.871H125.981ZM101.901 316.791L104.591 315.463L104.586 315.455L104.582 315.446L101.901 316.791ZM90.1406 293.351L92.8221 292.006L87.1406 293.351H90.1406ZM90.1406 324.871V327.871H93.1406V324.871H90.1406ZM74.9406 324.871H71.9406V327.871H74.9406V324.871ZM74.9406 268.871V265.871H71.9406V268.871H74.9406ZM98.8606 277.191L96.1702 278.519L96.1738 278.526L96.1773 278.533L98.8606 277.191ZM110.781 301.031L108.097 302.373L113.781 301.031H110.781ZM110.781 268.871V271.871H125.981V268.871V265.871H110.781V268.871ZM125.981 268.871H122.981V324.871H125.981H128.981V268.871H125.981ZM125.981 324.871V321.871H115.261V324.871V327.871H125.981V324.871ZM115.261 324.871V321.871C111.899 321.871 110.018 321.472 108.66 320.675C107.334 319.896 106.081 318.482 104.591 315.463L101.901 316.791L99.2107 318.12C100.92 321.581 102.828 324.207 105.621 325.848C108.383 327.471 111.582 327.871 115.261 327.871V324.871ZM101.901 316.791L104.582 315.446L92.8221 292.006L90.1406 293.351L87.4592 294.697L99.2192 318.137L101.901 316.791ZM90.1406 293.351H87.1406V324.871H90.1406H93.1406V293.351H90.1406ZM90.1406 324.871V321.871H74.9406V324.871V327.871H90.1406V324.871ZM74.9406 324.871H77.9406V268.871H74.9406H71.9406V324.871H74.9406ZM74.9406 268.871V271.871H85.4206V268.871V265.871H74.9406V268.871ZM85.4206 268.871V271.871C89.1397 271.871 91.0591 272.428 92.3394 273.28C93.6472 274.149 94.7384 275.616 96.1702 278.519L98.8606 277.191L101.551 275.864C100.023 272.767 98.354 270.074 95.6618 268.283C92.9422 266.475 89.6215 265.871 85.4206 265.871V268.871ZM98.8606 277.191L96.1773 278.533L108.097 302.373L110.781 301.031L113.464 299.69L101.544 275.85L98.8606 277.191ZM110.781 301.031H113.781V268.871H110.781H107.781V301.031H110.781ZM158.686 324.871V327.871H161.686V324.871H158.686ZM143.486 324.871H140.486V327.871H143.486V324.871ZM143.486 268.871V265.871H140.486V268.871H143.486ZM158.686 268.871H161.686V265.871H158.686V268.871ZM158.686 324.871V321.871H143.486V324.871V327.871H158.686V324.871ZM143.486 324.871H146.486V268.871H143.486H140.486V324.871H143.486ZM143.486 268.871V271.871H158.686V268.871V265.871H143.486V268.871ZM158.686 268.871H155.686V324.871H158.686H161.686V268.871H158.686Z" fill="#A6FF95" mask="url(#path-5-outside-1_174_3)"/>
</g>
<g filter="url(#filter1_d_174_3)">
<path d="M202.32 268.871H217.52V324.871H202.32V305.271H183.92V324.871H168.72V268.871H183.92V292.551H202.32V268.871ZM285.323 268.871V300.871C285.323 316.711 278.203 325.351 260.363 325.351H259.243C241.403 325.351 234.203 316.711 234.203 300.871V268.871H249.403V300.871C249.403 309.991 253.403 312.631 258.523 312.631H261.083C266.203 312.631 270.123 309.991 270.123 300.871V268.871H285.323ZM338.704 295.431C344.784 297.671 347.584 302.551 347.584 309.271C347.584 316.951 342.864 324.871 333.664 324.871H302.144V268.871H330.944C340.224 268.871 344.864 275.831 344.864 283.431C344.864 289.111 342.944 293.111 338.704 295.431ZM317.344 281.591V289.991H324.944C327.664 289.991 329.984 289.351 329.984 285.751C329.984 282.231 327.664 281.591 324.944 281.591H317.344ZM327.664 312.151C330.304 312.151 332.704 310.311 332.704 306.711C332.704 303.431 330.704 301.991 328.224 301.751H317.344V312.151H327.664Z" fill="#A6FF95"/>
</g>
<defs>
<filter id="filter0_d_174_3" x="0" y="265.871" width="165.686" height="70.48" filterUnits="userSpaceOnUse" color-interpolation-filters="sRGB">
<feFlood flood-opacity="0" result="BackgroundImageFix"/>
<feColorMatrix in="SourceAlpha" type="matrix" values="0 0 0 0 0 0 0 0 0 0 0 0 0 0 0 0 0 0 127 0" result="hardAlpha"/>
<feOffset dy="4"/>
<feGaussianBlur stdDeviation="2"/>
<feComposite in2="hardAlpha" operator="out"/>
<feColorMatrix type="matrix" values="0 0 0 0 0 0 0 0 0 0 0 0 0 0 0 0 0 0 0.25 0"/>
<feBlend mode="normal" in2="BackgroundImageFix" result="effect1_dropShadow_174_3"/>
<feBlend mode="normal" in="SourceGraphic" in2="effect1_dropShadow_174_3" result="shape"/>
</filter>
<filter id="filter1_d_174_3" x="164.72" y="268.871" width="186.864" height="64.48" filterUnits="userSpaceOnUse" color-interpolation-filters="sRGB">
<feFlood flood-opacity="0" result="BackgroundImageFix"/>
<feColorMatrix in="SourceAlpha" type="matrix" values="0 0 0 0 0 0 0 0 0 0 0 0 0 0 0 0 0 0 127 0" result="hardAlpha"/>
<feOffset dy="4"/>
<feGaussianBlur stdDeviation="2"/>
<feComposite in2="hardAlpha" operator="out"/>
<feColorMatrix type="matrix" values="0 0 0 0 0 0 0 0 0 0 0 0 0 0 0 0 0 0 0.25 0"/>
<feBlend mode="normal" in2="BackgroundImageFix" result="effect1_dropShadow_174_3"/>
<feBlend mode="normal" in="SourceGraphic" in2="effect1_dropShadow_174_3" result="shape"/>
</filter>
</defs>
</svg>
