<svg width="352" height="322" viewBox="0 0 352 322" fill="none" xmlns="http://www.w3.org/2000/svg">
<path d="M181.36 14.2679C179.357 13.3374 176.116 13.3544 174.122 14.3057L154.97 23.4438C152.977 24.3952 152.985 25.9206 154.988 26.8511L217.289 55.7814C219.292 56.7118 219.3 58.2373 217.307 59.1886L183.431 75.3519C181.438 76.3032 178.197 76.3202 176.193 75.3897L113.893 46.4594C111.889 45.529 108.649 45.5459 106.655 46.4972L85.1634 56.7517C83.1695 57.703 83.1775 59.2285 85.1812 60.1589L174.579 101.672C176.583 102.603 179.823 102.586 181.817 101.635L270.776 59.1887C272.77 58.2373 272.762 56.7119 270.758 55.7814L181.36 14.2679Z" fill="#A6FF95"/>
<path d="M261.942 71.154C269.951 67.4196 276.443 71.5556 276.443 80.3922V97.6021C276.443 102.798 274.197 108.462 270.719 113.006C274.349 114.222 276.709 117.84 276.709 123.168V154.834C276.709 163.671 270.217 173.862 262.208 177.596L183.753 214.181C181.751 215.114 180.127 214.08 180.127 211.871V113.305C180.127 111.096 181.751 108.548 183.753 107.614L261.942 71.154ZM209.328 151.388C207.326 152.322 205.703 154.87 205.703 157.079V177.043C205.703 179.252 207.326 180.286 209.328 179.352L247.416 161.592C249.418 160.658 251.042 158.11 251.042 155.901V135.937C251.041 133.728 249.418 132.694 247.416 133.628L209.328 151.388ZM209.861 112.367C207.859 113.301 206.236 115.849 206.236 118.058V129.735C206.236 131.944 207.859 132.978 209.861 132.044L247.683 114.408C249.685 113.474 251.308 110.926 251.308 108.717V97.0405C251.308 94.8316 249.685 93.7977 247.683 94.731L209.861 112.367Z" fill="#A6FF95"/>
<path d="M77.2906 68.2679C77.2906 66.0588 78.9137 65.0248 80.9159 65.9584L104.256 76.842C106.258 77.7756 107.881 80.3234 107.881 82.5325V117.159C107.881 119.368 109.504 121.916 111.506 122.85L139.517 135.911C141.519 136.845 143.142 135.811 143.142 133.602V98.9749C143.142 96.7658 144.765 95.7318 146.767 96.6654L170.248 107.614C172.25 108.548 173.873 111.096 173.873 113.305V211.871C173.873 214.081 172.25 215.115 170.248 214.181L146.767 203.232C144.765 202.298 143.142 199.751 143.142 197.541V162.915C143.142 160.706 141.519 158.158 139.517 157.224L111.506 144.163C109.504 143.229 107.881 144.263 107.881 146.472V181.099C107.881 183.308 106.258 184.342 104.256 183.409L80.9159 172.525C78.9137 171.591 77.2906 169.044 77.2906 166.834V68.2679Z" fill="#A6FF95"/>
<path d="M173.097 4.42065C177.16 2.51382 181.863 2.52701 185.916 4.45581L278.946 48.7322C284.171 51.219 287.5 56.4904 287.5 62.2771V167.822C287.5 173.72 284.043 179.071 278.666 181.496L181.754 225.195C177.766 226.993 173.191 226.961 169.229 225.106L76.1406 181.527C70.8685 179.059 67.5 173.763 67.5 167.942V63.5105C67.5 57.6945 70.8619 52.4024 76.127 49.9314L173.097 4.42065Z" stroke="#A6FF95" stroke-width="6"/>
<g filter="url(#filter0_d_105_441)">
<mask id="path-5-outside-1_105_441" maskUnits="userSpaceOnUse" x="4" y="241.871" width="158" height="63" fill="black">
<rect fill="white" x="4" y="241.871" width="158" height="63"/>
<path d="M58.12 244.871V276.871C58.12 292.711 51 301.351 33.16 301.351H32.04C14.2 301.351 7 292.711 7 276.871V244.871H22.2V276.871C22.2 285.991 26.2 288.631 31.32 288.631H33.88C39 288.631 42.92 285.991 42.92 276.871V244.871H58.12ZM110.781 244.871H125.981V300.871H115.261C108.221 300.871 105.101 299.271 101.901 292.791L90.1406 269.351V300.871H74.9406V244.871H85.4206C93.3406 244.871 95.9006 247.191 98.8606 253.191L110.781 277.031V244.871ZM158.686 300.871H143.486V244.871H158.686V300.871Z"/>
</mask>
<path d="M58.12 244.871H61.12V241.871H58.12V244.871ZM7 244.871V241.871H4V244.871H7ZM22.2 244.871H25.2V241.871H22.2V244.871ZM42.92 244.871V241.871H39.92V244.871H42.92ZM58.12 244.871H55.12V276.871H58.12H61.12V244.871H58.12ZM58.12 276.871H55.12C55.12 284.405 53.4203 289.614 50.1751 292.964C46.9472 296.297 41.644 298.351 33.16 298.351V301.351V304.351C42.516 304.351 49.6928 302.086 54.4849 297.139C59.2597 292.209 61.12 285.177 61.12 276.871H58.12ZM33.16 301.351V298.351H32.04V301.351V304.351H33.16V301.351ZM32.04 301.351V298.351C23.5563 298.351 18.2289 296.297 14.9797 292.959C11.716 289.606 10 284.398 10 276.871H7H4C4 285.185 5.88397 292.217 10.6803 297.144C15.4911 302.086 22.6837 304.351 32.04 304.351V301.351ZM7 276.871H10V244.871H7H4V276.871H7ZM7 244.871V247.871H22.2V244.871V241.871H7V244.871ZM22.2 244.871H19.2V276.871H22.2H25.2V244.871H22.2ZM22.2 276.871H19.2C19.2 281.799 20.2711 285.611 22.6224 288.192C25.0298 290.834 28.2652 291.631 31.32 291.631V288.631V285.631C29.2548 285.631 27.9302 285.109 27.0576 284.151C26.1289 283.132 25.2 281.064 25.2 276.871H22.2ZM31.32 288.631V291.631H33.88V288.631V285.631H31.32V288.631ZM33.88 288.631V291.631C36.9365 291.631 40.1608 290.833 42.5499 288.178C44.875 285.595 45.92 281.785 45.92 276.871H42.92H39.92C39.92 281.078 39.005 283.148 38.0901 284.165C37.2392 285.11 35.9435 285.631 33.88 285.631V288.631ZM42.92 276.871H45.92V244.871H42.92H39.92V276.871H42.92ZM42.92 244.871V247.871H58.12V244.871V241.871H42.92V244.871ZM110.781 244.871V241.871H107.781V244.871H110.781ZM125.981 244.871H128.981V241.871H125.981V244.871ZM125.981 300.871V303.871H128.981V300.871H125.981ZM101.901 292.791L104.591 291.463L104.586 291.455L104.582 291.446L101.901 292.791ZM90.1406 269.351L92.8221 268.006L87.1406 269.351H90.1406ZM90.1406 300.871V303.871H93.1406V300.871H90.1406ZM74.9406 300.871H71.9406V303.871H74.9406V300.871ZM74.9406 244.871V241.871H71.9406V244.871H74.9406ZM98.8606 253.191L96.1702 254.519L96.1738 254.526L96.1773 254.533L98.8606 253.191ZM110.781 277.031L108.097 278.373L113.781 277.031H110.781ZM110.781 244.871V247.871H125.981V244.871V241.871H110.781V244.871ZM125.981 244.871H122.981V300.871H125.981H128.981V244.871H125.981ZM125.981 300.871V297.871H115.261V300.871V303.871H125.981V300.871ZM115.261 300.871V297.871C111.899 297.871 110.018 297.472 108.66 296.675C107.334 295.896 106.081 294.482 104.591 291.463L101.901 292.791L99.2107 294.12C100.92 297.581 102.828 300.207 105.621 301.848C108.383 303.471 111.582 303.871 115.261 303.871V300.871ZM101.901 292.791L104.582 291.446L92.8221 268.006L90.1406 269.351L87.4592 270.697L99.2192 294.137L101.901 292.791ZM90.1406 269.351H87.1406V300.871H90.1406H93.1406V269.351H90.1406ZM90.1406 300.871V297.871H74.9406V300.871V303.871H90.1406V300.871ZM74.9406 300.871H77.9406V244.871H74.9406H71.9406V300.871H74.9406ZM74.9406 244.871V247.871H85.4206V244.871V241.871H74.9406V244.871ZM85.4206 244.871V247.871C89.1397 247.871 91.0591 248.428 92.3394 249.279C93.6472 250.149 94.7384 251.616 96.1702 254.519L98.8606 253.191L101.551 251.864C100.023 248.767 98.354 246.074 95.6618 244.283C92.9422 242.475 89.6215 241.871 85.4206 241.871V244.871ZM98.8606 253.191L96.1773 254.533L108.097 278.373L110.781 277.031L113.464 275.69L101.544 251.85L98.8606 253.191ZM110.781 277.031H113.781V244.871H110.781H107.781V277.031H110.781ZM158.686 300.871V303.871H161.686V300.871H158.686ZM143.486 300.871H140.486V303.871H143.486V300.871ZM143.486 244.871V241.871H140.486V244.871H143.486ZM158.686 244.871H161.686V241.871H158.686V244.871ZM158.686 300.871V297.871H143.486V300.871V303.871H158.686V300.871ZM143.486 300.871H146.486V244.871H143.486H140.486V300.871H143.486ZM143.486 244.871V247.871H158.686V244.871V241.871H143.486V244.871ZM158.686 244.871H155.686V300.871H158.686H161.686V244.871H158.686Z" fill="#A6FF95" mask="url(#path-5-outside-1_105_441)"/>
</g>
<g filter="url(#filter1_d_105_441)">
<path d="M202.32 244.871H217.52V300.871H202.32V281.271H183.92V300.871H168.72V244.871H183.92V268.551H202.32V244.871ZM285.323 244.871V276.871C285.323 292.711 278.203 301.351 260.363 301.351H259.243C241.403 301.351 234.203 292.711 234.203 276.871V244.871H249.403V276.871C249.403 285.991 253.403 288.631 258.523 288.631H261.083C266.203 288.631 270.123 285.991 270.123 276.871V244.871H285.323ZM338.704 271.431C344.784 273.671 347.584 278.551 347.584 285.271C347.584 292.951 342.864 300.871 333.664 300.871H302.144V244.871H330.944C340.224 244.871 344.864 251.831 344.864 259.431C344.864 265.111 342.944 269.111 338.704 271.431ZM317.344 257.591V265.991H324.944C327.664 265.991 329.984 265.351 329.984 261.751C329.984 258.231 327.664 257.591 324.944 257.591H317.344ZM327.664 288.151C330.304 288.151 332.704 286.311 332.704 282.711C332.704 279.431 330.704 277.991 328.224 277.751H317.344V288.151H327.664Z" fill="#A6FF95"/>
</g>
<defs>
<filter id="filter0_d_105_441" x="0" y="241.871" width="165.686" height="70.48" filterUnits="userSpaceOnUse" color-interpolation-filters="sRGB">
<feFlood flood-opacity="0" result="BackgroundImageFix"/>
<feColorMatrix in="SourceAlpha" type="matrix" values="0 0 0 0 0 0 0 0 0 0 0 0 0 0 0 0 0 0 127 0" result="hardAlpha"/>
<feOffset dy="4"/>
<feGaussianBlur stdDeviation="2"/>
<feComposite in2="hardAlpha" operator="out"/>
<feColorMatrix type="matrix" values="0 0 0 0 0 0 0 0 0 0 0 0 0 0 0 0 0 0 0.25 0"/>
<feBlend mode="normal" in2="BackgroundImageFix" result="effect1_dropShadow_105_441"/>
<feBlend mode="normal" in="SourceGraphic" in2="effect1_dropShadow_105_441" result="shape"/>
</filter>
<filter id="filter1_d_105_441" x="164.72" y="244.871" width="186.864" height="64.48" filterUnits="userSpaceOnUse" color-interpolation-filters="sRGB">
<feFlood flood-opacity="0" result="BackgroundImageFix"/>
<feColorMatrix in="SourceAlpha" type="matrix" values="0 0 0 0 0 0 0 0 0 0 0 0 0 0 0 0 0 0 127 0" result="hardAlpha"/>
<feOffset dy="4"/>
<feGaussianBlur stdDeviation="2"/>
<feComposite in2="hardAlpha" operator="out"/>
<feColorMatrix type="matrix" values="0 0 0 0 0 0 0 0 0 0 0 0 0 0 0 0 0 0 0.25 0"/>
<feBlend mode="normal" in2="BackgroundImageFix" result="effect1_dropShadow_105_441"/>
<feBlend mode="normal" in="SourceGraphic" in2="effect1_dropShadow_105_441" result="shape"/>
</filter>
</defs>
</svg>
